<?plantuml 1.2026.1?><svg xmlns="http://www.w3.org/2000/svg" xmlns:xlink="http://www.w3.org/1999/xlink" contentStyleType="text/css" data-diagram-type="DESCRIPTION" height="535px" preserveAspectRatio="none" style="width:407px;height:535px;background:#FFFFFF;" version="1.1" viewBox="0 0 407 535" width="407px" zoomAndPan="magnify"><defs/><g><!--cluster Backend API--><g class="cluster" data-qualified-name="Backend API" data-source-line="2" id="ent0002"><polygon fill="none" points="16,6,120.3896,6,127.3896,28.2969,390,28.2969,390,528.48,16,528.48,16,6" style="stroke:#000000;stroke-width:1.5;"/><line style="stroke:#000000;stroke-width:1.5;" x1="16" x2="127.3896" y1="28.2969" y2="28.2969"/><text fill="#000000" font-family="sans-serif" font-size="14" font-weight="bold" lengthAdjust="spacing" textLength="98.3896" x="20" y="20.9951">Backend API</text></g><!--entity UserController--><g class="entity" data-qualified-name="Backend API.UserController" data-source-line="3" id="ent0003"><rect fill="#F1F1F1" height="46.2969" rx="2.5" ry="2.5" style="stroke:#181818;stroke-width:0.5;" width="141.083" x="219.46" y="41"/><rect fill="#F1F1F1" height="10" style="stroke:#181818;stroke-width:0.5;" width="15" x="340.543" y="46"/><rect fill="#F1F1F1" height="2" style="stroke:#181818;stroke-width:0.5;" width="4" x="338.543" y="48"/><rect fill="#F1F1F1" height="2" style="stroke:#181818;stroke-width:0.5;" width="4" x="338.543" y="52"/><text fill="#000000" font-family="sans-serif" font-size="14" lengthAdjust="spacing" textLength="101.083" x="234.46" y="73.9951">UserController</text></g><!--entity WorkoutController--><g class="entity" data-qualified-name="Backend API.WorkoutController" data-source-line="4" id="ent0004"><rect fill="#F1F1F1" height="46.2969" rx="2.5" ry="2.5" style="stroke:#181818;stroke-width:0.5;" width="168.3721" x="205.81" y="147.29"/><rect fill="#F1F1F1" height="10" style="stroke:#181818;stroke-width:0.5;" width="15" x="354.1821" y="152.29"/><rect fill="#F1F1F1" height="2" style="stroke:#181818;stroke-width:0.5;" width="4" x="352.1821" y="154.29"/><rect fill="#F1F1F1" height="2" style="stroke:#181818;stroke-width:0.5;" width="4" x="352.1821" y="158.29"/><text fill="#000000" font-family="sans-serif" font-size="14" lengthAdjust="spacing" textLength="128.3721" x="220.81" y="180.2851">WorkoutController</text></g><!--entity PlanController--><g class="entity" data-qualified-name="Backend API.PlanController" data-source-line="5" id="ent0005"><rect fill="#F1F1F1" height="46.2969" rx="2.5" ry="2.5" style="stroke:#181818;stroke-width:0.5;" width="138.957" x="31.52" y="147.29"/><rect fill="#F1F1F1" height="10" style="stroke:#181818;stroke-width:0.5;" width="15" x="150.477" y="152.29"/><rect fill="#F1F1F1" height="2" style="stroke:#181818;stroke-width:0.5;" width="4" x="148.477" y="154.29"/><rect fill="#F1F1F1" height="2" style="stroke:#181818;stroke-width:0.5;" width="4" x="148.477" y="158.29"/><text fill="#000000" font-family="sans-serif" font-size="14" lengthAdjust="spacing" textLength="98.957" x="46.52" y="180.2851">PlanController</text></g><!--entity RAGService--><g class="entity" data-qualified-name="Backend API.RAGService" data-source-line="6" id="ent0006"><rect fill="#F1F1F1" height="46.2969" rx="2.5" ry="2.5" style="stroke:#181818;stroke-width:0.5;" width="121.8945" x="117.05" y="253.59"/><rect fill="#F1F1F1" height="10" style="stroke:#181818;stroke-width:0.5;" width="15" x="218.9445" y="258.59"/><rect fill="#F1F1F1" height="2" style="stroke:#181818;stroke-width:0.5;" width="4" x="216.9445" y="260.59"/><rect fill="#F1F1F1" height="2" style="stroke:#181818;stroke-width:0.5;" width="4" x="216.9445" y="264.59"/><text fill="#000000" font-family="sans-serif" font-size="14" lengthAdjust="spacing" textLength="81.8945" x="132.05" y="286.5851">RAGService</text></g><!--entity PromptBuilder--><g class="entity" data-qualified-name="Backend API.PromptBuilder" data-source-line="7" id="ent0007"><rect fill="#F1F1F1" height="46.2969" rx="2.5" ry="2.5" style="stroke:#181818;stroke-width:0.5;" width="140.29" x="107.85" y="359.89"/><rect fill="#F1F1F1" height="10" style="stroke:#181818;stroke-width:0.5;" width="15" x="228.14" y="364.89"/><rect fill="#F1F1F1" height="2" style="stroke:#181818;stroke-width:0.5;" width="4" x="226.14" y="366.89"/><rect fill="#F1F1F1" height="2" style="stroke:#181818;stroke-width:0.5;" width="4" x="226.14" y="370.89"/><text fill="#000000" font-family="sans-serif" font-size="14" lengthAdjust="spacing" textLength="100.29" x="122.85" y="392.8851">PromptBuilder</text></g><!--entity VectorSearch--><g class="entity" data-qualified-name="Backend API.VectorSearch" data-source-line="8" id="ent0008"><rect fill="#F1F1F1" height="46.2969" rx="2.5" ry="2.5" style="stroke:#181818;stroke-width:0.5;" width="134.1035" x="63.95" y="466.18"/><rect fill="#F1F1F1" height="10" style="stroke:#181818;stroke-width:0.5;" width="15" x="178.0535" y="471.18"/><rect fill="#F1F1F1" height="2" style="stroke:#181818;stroke-width:0.5;" width="4" x="176.0535" y="473.18"/><rect fill="#F1F1F1" height="2" style="stroke:#181818;stroke-width:0.5;" width="4" x="176.0535" y="477.18"/><text fill="#000000" font-family="sans-serif" font-size="14" lengthAdjust="spacing" textLength="94.1035" x="78.95" y="499.1751">VectorSearch</text></g><!--entity LLMClient--><g class="entity" data-qualified-name="Backend API.LLMClient" data-source-line="9" id="ent0009"><rect fill="#F1F1F1" height="46.2969" rx="2.5" ry="2.5" style="stroke:#181818;stroke-width:0.5;" width="108.209" x="232.9" y="466.18"/><rect fill="#F1F1F1" height="10" style="stroke:#181818;stroke-width:0.5;" width="15" x="321.109" y="471.18"/><rect fill="#F1F1F1" height="2" style="stroke:#181818;stroke-width:0.5;" width="4" x="319.109" y="473.18"/><rect fill="#F1F1F1" height="2" style="stroke:#181818;stroke-width:0.5;" width="4" x="319.109" y="477.18"/><text fill="#000000" font-family="sans-serif" font-size="14" lengthAdjust="spacing" textLength="68.209" x="247.9" y="499.1751">LLMClient</text></g><!--link UserController to WorkoutController--><g class="link" data-entity-1="ent0003" data-entity-2="ent0004" data-link-type="dependency" data-source-line="12" id="lnk10"><path d="M290,87.77 C290,105.27 290,123.37 290,140.85" fill="none" id="UserController-to-WorkoutController" style="stroke:#181818;stroke-width:1;"/><polygon fill="#181818" points="290,146.85,294,137.85,290,141.85,286,137.85,290,146.85" style="stroke:#181818;stroke-width:1;"/></g><!--link WorkoutController to RAGService--><g class="link" data-entity-1="ent0004" data-entity-2="ent0006" data-link-type="dependency" data-source-line="13" id="lnk11"><path d="M265.7,194.07 C246.91,211.57 225.4219,231.5821 206.6419,249.0621" fill="none" id="WorkoutController-to-RAGService" style="stroke:#181818;stroke-width:1;"/><polygon fill="#181818" points="202.25,253.15,211.5632,249.9461,205.9099,249.7434,206.1126,244.0902,202.25,253.15" style="stroke:#181818;stroke-width:1;"/></g><!--link PlanController to RAGService--><g class="link" data-entity-1="ent0005" data-entity-2="ent0006" data-link-type="dependency" data-source-line="14" id="lnk12"><path d="M117.71,194.07 C130.62,211.57 144.8572,230.8423 157.7572,248.3223" fill="none" id="PlanController-to-RAGService" style="stroke:#181818;stroke-width:1;"/><polygon fill="#181818" points="161.32,253.15,159.1943,243.5333,158.351,249.1269,152.7574,248.2836,161.32,253.15" style="stroke:#181818;stroke-width:1;"/></g><!--link RAGService to PromptBuilder--><g class="link" data-entity-1="ent0006" data-entity-2="ent0007" data-link-type="dependency" data-source-line="15" id="lnk13"><path d="M178,300.37 C178,317.86 178,335.97 178,353.45" fill="none" id="RAGService-to-PromptBuilder" style="stroke:#181818;stroke-width:1;"/><polygon fill="#181818" points="178,359.45,182,350.45,178,354.45,174,350.45,178,359.45" style="stroke:#181818;stroke-width:1;"/></g><!--link PromptBuilder to VectorSearch--><g class="link" data-entity-1="ent0007" data-entity-2="ent0008" data-link-type="dependency" data-source-line="16" id="lnk14"><path d="M167.8,406.67 C159.92,424.16 151.5258,442.7901 143.6458,460.2701" fill="none" id="PromptBuilder-to-VectorSearch" style="stroke:#181818;stroke-width:1;"/><polygon fill="#181818" points="141.18,465.74,148.5253,459.1791,143.2349,461.1818,141.2322,455.8913,141.18,465.74" style="stroke:#181818;stroke-width:1;"/></g><!--link PromptBuilder to LLMClient--><g class="link" data-entity-1="ent0007" data-entity-2="ent0009" data-link-type="dependency" data-source-line="17" id="lnk15"><path d="M201.65,406.67 C219.93,424.16 240.7847,444.1121 259.0547,461.5921" fill="none" id="PromptBuilder-to-LLMClient" style="stroke:#181818;stroke-width:1;"/><polygon fill="#181818" points="263.39,465.74,259.6522,456.628,259.7772,462.2834,254.1217,462.4084,263.39,465.74" style="stroke:#181818;stroke-width:1;"/></g><?plantuml-src ROv12u9048Nlyoi6x_w5G3r4O219TGWFophKuhehunf4zD-pBRBLBiERxpruhs-KwGIB5djtqpHULj8DhOPEo4QS2QDq56HgJ8fDX7T0FErxuimQnrPhukg5ZfORExWPBRGmCxHBrYNnLKbw9zYsdKi7fUjFu43IMIv9iBnuaEVRJ2iohe87GDYDSRp2HJSiYCzDrH0EcxkJz4wm4OBF-x-B_zZV_Ky0?></g></svg>