<svg xmlns="http://www.w3.org/2000/svg" xmlns:xlink="http://www.w3.org/1999/xlink" contentStyleType="text/css" data-diagram-type="DESCRIPTION" height="573px" preserveAspectRatio="none" style="width:413px;height:573px;background:#FFFFFF;" version="1.1" viewBox="0 0 413 573" width="413px" zoomAndPan="magnify"><defs/><g><!--entity User--><g class="entity" data-entity="User" data-source-line="4" data-uid="ent0002" id="entity_User"><ellipse cx="303.4751" cy="14" fill="#F1F1F1" rx="8" ry="8" style="stroke:#181818;stroke-width:0.5;"/><path d="M303.4751,22 L303.4751,49 M290.4751,30 L316.4751,30 M303.4751,49 L290.4751,64 M303.4751,49 L316.4751,64" fill="none" style="stroke:#181818;stroke-width:0.5;"/><text fill="#000000" font-family="sans-serif" font-size="14" lengthAdjust="spacing" textLength="31.9102" x="287.52" y="78.4951">User</text></g><!--entity Input--><g class="entity" data-entity="Input" data-source-line="5" data-uid="ent0003" id="entity_Input"><rect fill="#F1F1F1" height="52.5938" rx="2.5" ry="2.5" style="stroke:#181818;stroke-width:0.5;" width="156.1035" x="126.42" y="142.8"/><text fill="#000000" font-family="sans-serif" font-size="14" lengthAdjust="spacing" textLength="72.6113" x="136.42" y="165.7951">User Input</text><text fill="#000000" font-family="sans-serif" font-size="14" lengthAdjust="spacing" textLength="136.1035" x="136.42" y="182.092">(Natural Language)</text></g><!--entity Builder--><g class="entity" data-entity="Builder" data-source-line="6" data-uid="ent0004" id="entity_Builder"><rect fill="#F1F1F1" height="36.2969" rx="2.5" ry="2.5" style="stroke:#181818;stroke-width:0.5;" width="124.7402" x="108.1" y="272.4"/><text fill="#000000" font-family="sans-serif" font-size="14" lengthAdjust="spacing" textLength="104.7402" x="118.1" y="295.3951">Prompt Builder</text></g><!--entity Vector--><g class="entity" data-entity="Vector" data-source-line="7" data-uid="ent0005" id="entity_Vector"><rect fill="#F1F1F1" height="52.5938" rx="2.5" ry="2.5" style="stroke:#181818;stroke-width:0.5;" width="123.7764" x="18.58" y="385.69"/><text fill="#000000" font-family="sans-serif" font-size="14" lengthAdjust="spacing" textLength="87.459" x="28.58" y="408.6851">Vector Store</text><text fill="#000000" font-family="sans-serif" font-size="14" lengthAdjust="spacing" textLength="103.7764" x="28.58" y="424.982">(FAISS/Qdrant)</text></g><!--entity Docs--><g class="entity" data-entity="Docs" data-source-line="8" data-uid="ent0006" id="entity_Docs"><rect fill="#F1F1F1" height="52.5938" rx="2.5" ry="2.5" style="stroke:#181818;stroke-width:0.5;" width="146.9434" x="7" y="515.29"/><text fill="#000000" font-family="sans-serif" font-size="14" lengthAdjust="spacing" textLength="100.8574" x="17" y="538.2851">Relevant Docs</text><text fill="#000000" font-family="sans-serif" font-size="14" lengthAdjust="spacing" textLength="126.9434" x="17" y="554.582">(Training Science)</text></g><!--entity LLM--><g class="entity" data-entity="LLM" data-source-line="9" data-uid="ent0007" id="entity_LLM"><rect fill="#F1F1F1" height="52.5938" rx="2.5" ry="2.5" style="stroke:#181818;stroke-width:0.5;" width="124.4189" x="185.26" y="385.69"/><text fill="#000000" font-family="sans-serif" font-size="14" lengthAdjust="spacing" textLength="54.2773" x="195.26" y="408.6851">LLM API</text><text fill="#000000" font-family="sans-serif" font-size="14" lengthAdjust="spacing" textLength="104.4189" x="195.26" y="424.982">(GPT-4/Mistral)</text></g><!--entity Output--><g class="entity" data-entity="Output" data-source-line="10" data-uid="ent0008" id="entity_Output"><rect fill="#F1F1F1" height="52.5938" rx="2.5" ry="2.5" style="stroke:#181818;stroke-width:0.5;" width="198.7939" x="209.07" y="515.29"/><text fill="#000000" font-family="sans-serif" font-size="14" lengthAdjust="spacing" textLength="86.3652" x="219.07" y="538.2851">Final Output</text><text fill="#000000" font-family="sans-serif" font-size="14" lengthAdjust="spacing" textLength="178.7939" x="219.07" y="554.582">(Training Plan, Feedback)</text></g><!--link User to Input--><g class="link" data-entity-1="User" data-entity-2="Input" data-source-line="12" data-uid="lnk9" id="link_User_Input"><path d="M287.12,65.04 C270.1,86.27 247.1436,114.8892 228.7236,137.8592" fill="none" id="User-to-Input" style="stroke:#181818;stroke-width:1;"/><polygon fill="#181818" points="224.97,142.54,233.721,138.0212,228.098,138.6393,227.4799,133.0163,224.97,142.54" style="stroke:#181818;stroke-width:1;"/></g><!--link Input to Builder--><g class="link" data-entity-1="Input" data-entity-2="Builder" data-source-line="13" data-uid="lnk10" id="link_Input_Builder"><path d="M182.76,195.74 C176.58,204.57 170.66,214.9 167.47,225.4 C162.84,240.65 163.3234,252.9634 165.5334,266.0834" fill="none" id="Input-to-Builder" style="stroke:#181818;stroke-width:1;"/><polygon fill="#181818" points="166.53,272,168.9795,262.4606,165.6995,267.0695,161.0906,263.7894,166.53,272" style="stroke:#181818;stroke-width:1;"/><text fill="#000000" font-family="sans-serif" font-size="13" lengthAdjust="spacing" textLength="174.5161" x="168.47" y="238.4669">prepare structured prompt</text></g><!--link Builder to Vector--><g class="link" data-entity-1="Builder" data-entity-2="Vector" data-source-line="14" data-uid="lnk11" id="link_Builder_Vector"><path d="M119.89,309.14 C106.55,316.25 93.63,325.88 85.47,338.69 C76.76,352.39 75.1738,364.6524 76.1238,379.3824" fill="none" id="Builder-to-Vector" style="stroke:#181818;stroke-width:1;"/><polygon fill="#181818" points="76.51,385.37,79.9225,376.1312,76.1882,380.3804,71.939,376.6461,76.51,385.37" style="stroke:#181818;stroke-width:1;"/><text fill="#000000" font-family="sans-serif" font-size="13" lengthAdjust="spacing" textLength="107.0977" x="86.47" y="351.7569">semantic search</text></g><!--link Vector to Docs--><g class="link" data-entity-1="Vector" data-entity-2="Docs" data-source-line="15" data-uid="lnk12" id="link_Vector_Docs"><path d="M80.47,438.5 C80.47,460.76 80.47,486.87 80.47,509.11" fill="none" id="Vector-to-Docs" style="stroke:#181818;stroke-width:1;"/><polygon fill="#181818" points="80.47,515.11,84.47,506.11,80.47,510.11,76.47,506.11,80.47,515.11" style="stroke:#181818;stroke-width:1;"/><text fill="#000000" font-family="sans-serif" font-size="13" lengthAdjust="spacing" textLength="181.5747" x="81.47" y="481.3569">return top-k context chunks</text></g><!--link Builder to LLM--><g class="link" data-entity-1="Builder" data-entity-2="LLM" data-source-line="16" data-uid="lnk13" id="link_Builder_LLM"><path d="M181.83,309.17 C194.8,329.29 212.8787,357.3273 227.6887,380.2973" fill="none" id="Builder-to-LLM" style="stroke:#181818;stroke-width:1;"/><polygon fill="#181818" points="230.94,385.34,229.4248,375.6084,228.2306,381.1377,222.7012,379.9435,230.94,385.34" style="stroke:#181818;stroke-width:1;"/><text fill="#000000" font-family="sans-serif" font-size="13" lengthAdjust="spacing" textLength="115.9463" x="212.47" y="351.7569">context + prompt</text></g><!--link LLM to Output--><g class="link" data-entity-1="LLM" data-entity-2="Output" data-source-line="17" data-uid="lnk14" id="link_LLM_Output"><path d="M259.67,438.5 C270.31,460.76 283.0706,487.4575 293.7106,509.6975" fill="none" id="LLM-to-Output" style="stroke:#181818;stroke-width:1;"/><polygon fill="#181818" points="296.3,515.11,296.0242,505.265,294.1421,510.5996,288.8075,508.7176,296.3,515.11" style="stroke:#181818;stroke-width:1;"/></g><!--link Output to User--><g class="link" data-entity-1="Output" data-entity-2="User" data-source-line="18" data-uid="lnk15" id="link_Output_User"><path d="M329.12,514.92 C346.82,490.29 369.47,451.29 369.47,412.99 C369.47,168.1 369.47,168.1 369.47,168.1 C369.47,126.06 343.2592,88.9945 323.7192,66.4445" fill="none" id="Output-to-User" style="stroke:#181818;stroke-width:1;"/><polygon fill="#181818" points="319.79,61.91,322.6608,71.3312,323.0643,65.6887,328.7068,66.0922,319.79,61.91" style="stroke:#181818;stroke-width:1;"/></g><!--SRC=[LP5DJyCm38Rl-HNMJY2eTk6q0z8GAfgqGQ634vUGMblKrAtoWU3VutoiAXStyVlOxkkuNjCahHp0-L-37ArMFWn6k5bHup2DXEJRX5XKNjB9e11I-T72kqChvYoiuXrsD0N_ILVFqWSh3UnP3FA4rokGBglBciRo40yFGPiERMBAUKbzO1hOSa3kNMztRRj-xQmad_jcO5doXWQ_MOV7KJckELgfITC9MgMHLFcVA2whzli3R9iTyq_DiRfR7pGlHfeCixXaQqtixoNuR7WUq1X9jr0ZTbzIzRaqKqAa5LNLVLb4YkbUJCC69eky_lGYWL_4OiUfk2HnOI9VDh81XmExr8eFqggpA49aeZacB78N0ZzELSzlIXv_FAXpeDxzQnczRsRWvZ8rfgDSBEHFoaGpVm00]--></g></svg>