<svg xmlns="http://www.w3.org/2000/svg" xmlns:xlink="http://www.w3.org/1999/xlink" contentStyleType="text/css" data-diagram-type="STATE" height="397px" preserveAspectRatio="none" style="width:395px;height:397px;background:#FFFFFF;" version="1.1" viewBox="0 0 395 397" width="395px" zoomAndPan="magnify"><defs/><g><ellipse cx="252.82" cy="16" fill="#222222" rx="10" ry="10" style="stroke:#222222;stroke-width:1;"/><g id="Planned"><rect fill="#F1F1F1" height="50" rx="12.5" ry="12.5" style="stroke:#181818;stroke-width:0.5;" width="76.1572" x="214.74" y="87"/><line style="stroke:#181818;stroke-width:0.5;" x1="214.74" x2="290.8972" y1="113.2969" y2="113.2969"/><text fill="#000000" font-family="sans-serif" font-size="14" lengthAdjust="spacing" textLength="56.1572" x="224.74" y="104.9951">Planned</text></g><g id="InProgress"><rect fill="#F1F1F1" height="50" rx="12.5" ry="12.5" style="stroke:#181818;stroke-width:0.5;" width="93.6094" x="139.01" y="214"/><line style="stroke:#181818;stroke-width:0.5;" x1="139.01" x2="232.6194" y1="240.2969" y2="240.2969"/><text fill="#000000" font-family="sans-serif" font-size="14" lengthAdjust="spacing" textLength="73.6094" x="149.01" y="231.9951">InProgress</text></g><g id="Logged"><rect fill="#F1F1F1" height="50" rx="12.5" ry="12.5" style="stroke:#181818;stroke-width:0.5;" width="71.6387" x="7" y="341"/><line style="stroke:#181818;stroke-width:0.5;" x1="7" x2="78.6387" y1="367.2969" y2="367.2969"/><text fill="#000000" font-family="sans-serif" font-size="14" lengthAdjust="spacing" textLength="51.6387" x="17" y="358.9951">Logged</text></g><g id="Missed"><rect fill="#F1F1F1" height="50" rx="12.5" ry="12.5" style="stroke:#181818;stroke-width:0.5;" width="68.0566" x="218.79" y="341"/><line style="stroke:#181818;stroke-width:0.5;" x1="218.79" x2="286.8466" y1="367.2969" y2="367.2969"/><text fill="#000000" font-family="sans-serif" font-size="14" lengthAdjust="spacing" textLength="48.0566" x="228.79" y="358.9951">Missed</text></g><!--link *start* to Planned--><g class="link" data-entity-1=".start." data-entity-2="Planned" data-source-line="3" data-uid="lnk4" id="link_.start._Planned"><path d="M252.82,26.36 C252.82,40.29 252.82,60.95 252.82,80.65" fill="none" id="*start*-to-Planned" style="stroke:#181818;stroke-width:1;"/><polygon fill="#181818" points="252.82,86.65,256.82,77.65,252.82,81.65,248.82,77.65,252.82,86.65" style="stroke:#181818;stroke-width:1;"/></g><!--link Planned to InProgress--><g class="link" data-entity-1="Planned" data-entity-2="InProgress" data-source-line="4" data-uid="lnk6" id="link_Planned_InProgress"><path d="M226.7,137.49 C218.71,146.15 210.53,156.4 204.82,167 C197.01,181.49 193.4139,193.524 190.6039,207.734" fill="none" id="Planned-to-InProgress" style="stroke:#181818;stroke-width:1;"/><polygon fill="#181818" points="189.44,213.62,195.1099,205.5669,190.41,208.715,187.2619,204.015,189.44,213.62" style="stroke:#181818;stroke-width:1;"/><text fill="#000000" font-family="sans-serif" font-size="13" lengthAdjust="spacing" textLength="87.1597" x="205.82" y="180.0669">start workout</text></g><!--link InProgress to Logged--><g class="link" data-entity-1="InProgress" data-entity-2="Logged" data-source-line="5" data-uid="lnk8" id="link_InProgress_Logged"><path d="M138.79,251.91 C114.7,260.16 86.58,273.45 67.82,294 C56.01,306.93 51.0013,319.9206 47.6913,334.9406" fill="none" id="InProgress-to-Logged" style="stroke:#181818;stroke-width:1;"/><polygon fill="#181818" points="46.4,340.8,52.2432,332.8717,47.476,335.9172,44.4306,331.1501,46.4,340.8" style="stroke:#181818;stroke-width:1;"/><text fill="#000000" font-family="sans-serif" font-size="13" lengthAdjust="spacing" textLength="101.0229" x="68.82" y="307.0669">all sets entered</text></g><!--link InProgress to Missed--><g class="link" data-entity-1="InProgress" data-entity-2="Missed" data-source-line="6" data-uid="lnk10" id="link_InProgress_Missed"><path d="M179.21,264.21 C176.63,278.52 175.74,296.61 182.82,311 C190.4,326.43 199.7175,335.4229 213.4575,344.3429" fill="none" id="InProgress-to-Missed" style="stroke:#181818;stroke-width:1;"/><polygon fill="#181818" points="218.49,347.61,213.1193,339.3544,214.2962,344.8874,208.7632,346.0644,218.49,347.61" style="stroke:#181818;stroke-width:1;"/><text fill="#000000" font-family="sans-serif" font-size="13" lengthAdjust="spacing" textLength="109.1226" x="183.82" y="307.0669">abandon session</text></g><!--link Missed to Planned--><g class="link" data-entity-1="Missed" data-entity-2="Planned" data-source-line="7" data-uid="lnk11" id="link_Missed_Planned"><path d="M279.14,340.72 C286.66,332.15 293.87,321.9 297.82,311 C319.61,250.82 319.61,227.18 297.82,167 C293.87,156.1 290.6174,150.3599 283.0974,141.7899" fill="none" id="Missed-to-Planned" style="stroke:#181818;stroke-width:1;"/><polygon fill="#181818" points="279.14,137.28,282.0694,146.6831,282.4378,141.0383,288.0826,141.4066,279.14,137.28" style="stroke:#181818;stroke-width:1;"/><text fill="#000000" font-family="sans-serif" font-size="13" lengthAdjust="spacing" textLength="71.6016" x="315.82" y="243.5669">reschedule</text></g><!--SRC=[NOwn2i9038RtUuhCGb-WWxkWq5qSOY-SHw-992dIjpTgX-AIGFxl2xzDbP-eE8FvsYYcrj6NkQLqFToWwuumD6IcdBRzlPruK2bAPj27W-hm4frayRIBFkHPIWcf1smDZDo0s4dZtnzugMO_y8wSXGCsgy9f2tPL0WfjV51U6hq1]--></g></svg>