<svg xmlns="http://www.w3.org/2000/svg" xmlns:xlink="http://www.w3.org/1999/xlink" contentStyleType="text/css" data-diagram-type="ACTIVITY" height="578px" preserveAspectRatio="none" style="width:371px;height:578px;background:#FFFFFF;" version="1.1" viewBox="0 0 371 578" width="371px" zoomAndPan="magnify"><defs/><g><ellipse cx="189.1909" cy="20" fill="#222222" rx="10" ry="10" style="stroke:#222222;stroke-width:1;"/><rect fill="#F1F1F1" height="33.9688" rx="12.5" ry="12.5" style="stroke:#181818;stroke-width:0.5;" width="90.7109" x="143.8354" y="50"/><text fill="#000000" font-family="sans-serif" font-size="12" lengthAdjust="spacing" textLength="70.7109" x="153.8354" y="71.1387">Launch App</text><rect fill="#F1F1F1" height="33.9688" rx="12.5" ry="12.5" style="stroke:#181818;stroke-width:0.5;" width="101.7383" x="138.3218" y="103.9688"/><text fill="#000000" font-family="sans-serif" font-size="12" lengthAdjust="spacing" textLength="81.7383" x="148.3218" y="125.1074">Create Profile</text><rect fill="#F1F1F1" height="33.9688" rx="12.5" ry="12.5" style="stroke:#181818;stroke-width:0.5;" width="177.3125" x="100.5347" y="157.9375"/><text fill="#000000" font-family="sans-serif" font-size="12" lengthAdjust="spacing" textLength="157.3125" x="110.5347" y="179.0762">Input Goals via Text/Voice</text><polygon fill="#F1F1F1" points="151.0374,211.9063,227.3445,211.9063,239.3445,223.9063,227.3445,235.9063,151.0374,235.9063,139.0374,223.9063,151.0374,211.9063" style="stroke:#181818;stroke-width:0.5;"/><text fill="#000000" font-family="sans-serif" font-size="11" lengthAdjust="spacing" textLength="76.3071" x="151.0374" y="227.7144">Existing Plan?</text><text fill="#000000" font-family="sans-serif" font-size="11" lengthAdjust="spacing" textLength="19.2178" x="119.8196" y="221.312">Yes</text><text fill="#000000" font-family="sans-serif" font-size="11" lengthAdjust="spacing" textLength="14.9585" x="239.3445" y="221.312">No</text><rect fill="#F1F1F1" height="33.9688" rx="12.5" ry="12.5" style="stroke:#181818;stroke-width:0.5;" width="171.8398" x="11" y="245.9063"/><text fill="#000000" font-family="sans-serif" font-size="12" lengthAdjust="spacing" textLength="151.8398" x="21" y="267.0449">Continue current training</text><rect fill="#F1F1F1" height="33.9688" rx="12.5" ry="12.5" style="stroke:#181818;stroke-width:0.5;" width="157.2441" x="202.8398" y="245.9063"/><text fill="#000000" font-family="sans-serif" font-size="12" lengthAdjust="spacing" textLength="137.2441" x="212.8398" y="267.0449">Trigger Plan Generator</text><rect fill="#F1F1F1" height="33.9688" rx="12.5" ry="12.5" style="stroke:#181818;stroke-width:0.5;" width="146.3164" x="208.3037" y="299.875"/><text fill="#000000" font-family="sans-serif" font-size="12" lengthAdjust="spacing" textLength="126.3164" x="218.3037" y="321.0137">Review 4-week block</text><polygon fill="#F1F1F1" points="189.1909,339.8438,201.1909,351.8438,189.1909,363.8438,177.1909,351.8438,189.1909,339.8438" style="stroke:#181818;stroke-width:0.5;"/><rect fill="#F1F1F1" height="33.9688" rx="12.5" ry="12.5" style="stroke:#181818;stroke-width:0.5;" width="102.4531" x="137.9644" y="383.8438"/><text fill="#000000" font-family="sans-serif" font-size="12" lengthAdjust="spacing" textLength="82.4531" x="147.9644" y="404.9824">Log Workouts</text><rect fill="#F1F1F1" height="33.9688" rx="12.5" ry="12.5" style="stroke:#181818;stroke-width:0.5;" width="162.7637" x="107.8091" y="437.8125"/><text fill="#000000" font-family="sans-serif" font-size="12" lengthAdjust="spacing" textLength="142.7637" x="117.8091" y="458.9512">Track Volume/Recovery</text><rect fill="#F1F1F1" height="33.9688" rx="12.5" ry="12.5" style="stroke:#181818;stroke-width:0.5;" width="150.834" x="113.7739" y="491.7813"/><text fill="#000000" font-family="sans-serif" font-size="12" lengthAdjust="spacing" textLength="130.834" x="123.7739" y="512.9199">Get Weekly Feedback</text><ellipse cx="189.1909" cy="556.75" fill="none" rx="11" ry="11" style="stroke:#222222;stroke-width:1;"/><ellipse cx="189.1909" cy="556.75" fill="#222222" rx="6" ry="6" style="stroke:#222222;stroke-width:1;"/><line style="stroke:#181818;stroke-width:1;" x1="189.1909" x2="189.1909" y1="30" y2="50"/><polygon fill="#181818" points="185.1909,40,193.1909,40,189.1909,50" style="stroke:#181818;stroke-width:1;"/><line style="stroke:#181818;stroke-width:1;" x1="189.1909" x2="189.1909" y1="83.9688" y2="103.9688"/><polygon fill="#181818" points="185.1909,93.9688,193.1909,93.9688,189.1909,103.9688" style="stroke:#181818;stroke-width:1;"/><line style="stroke:#181818;stroke-width:1;" x1="189.1909" x2="189.1909" y1="137.9375" y2="157.9375"/><polygon fill="#181818" points="185.1909,147.9375,193.1909,147.9375,189.1909,157.9375" style="stroke:#181818;stroke-width:1;"/><line style="stroke:#181818;stroke-width:1;" x1="281.4619" x2="281.4619" y1="279.875" y2="299.875"/><polygon fill="#181818" points="277.4619,289.875,285.4619,289.875,281.4619,299.875" style="stroke:#181818;stroke-width:1;"/><line style="stroke:#181818;stroke-width:1;" x1="139.0374" x2="96.9199" y1="223.9063" y2="223.9063"/><line style="stroke:#181818;stroke-width:1;" x1="96.9199" x2="96.9199" y1="223.9063" y2="245.9063"/><polygon fill="#181818" points="92.9199,235.9063,100.9199,235.9063,96.9199,245.9063" style="stroke:#181818;stroke-width:1;"/><line style="stroke:#181818;stroke-width:1;" x1="239.3445" x2="281.4619" y1="223.9063" y2="223.9063"/><line style="stroke:#181818;stroke-width:1;" x1="281.4619" x2="281.4619" y1="223.9063" y2="245.9063"/><polygon fill="#181818" points="277.4619,235.9063,285.4619,235.9063,281.4619,245.9063" style="stroke:#181818;stroke-width:1;"/><line style="stroke:#181818;stroke-width:1;" x1="96.9199" x2="96.9199" y1="279.875" y2="351.8438"/><line style="stroke:#181818;stroke-width:1;" x1="96.9199" x2="177.1909" y1="351.8438" y2="351.8438"/><polygon fill="#181818" points="167.1909,347.8438,177.1909,351.8438,167.1909,355.8438" style="stroke:#181818;stroke-width:1;"/><line style="stroke:#181818;stroke-width:1;" x1="281.4619" x2="281.4619" y1="333.8438" y2="351.8438"/><line style="stroke:#181818;stroke-width:1;" x1="281.4619" x2="201.1909" y1="351.8438" y2="351.8438"/><polygon fill="#181818" points="211.1909,347.8438,201.1909,351.8438,211.1909,355.8438" style="stroke:#181818;stroke-width:1;"/><line style="stroke:#181818;stroke-width:1;" x1="189.1909" x2="189.1909" y1="191.9063" y2="211.9063"/><polygon fill="#181818" points="185.1909,201.9063,193.1909,201.9063,189.1909,211.9063" style="stroke:#181818;stroke-width:1;"/><line style="stroke:#181818;stroke-width:1;" x1="189.1909" x2="189.1909" y1="363.8438" y2="383.8438"/><polygon fill="#181818" points="185.1909,373.8438,193.1909,373.8438,189.1909,383.8438" style="stroke:#181818;stroke-width:1;"/><line style="stroke:#181818;stroke-width:1;" x1="189.1909" x2="189.1909" y1="417.8125" y2="437.8125"/><polygon fill="#181818" points="185.1909,427.8125,193.1909,427.8125,189.1909,437.8125" style="stroke:#181818;stroke-width:1;"/><line style="stroke:#181818;stroke-width:1;" x1="189.1909" x2="189.1909" y1="471.7813" y2="491.7813"/><polygon fill="#181818" points="185.1909,481.7813,193.1909,481.7813,189.1909,491.7813" style="stroke:#181818;stroke-width:1;"/><line style="stroke:#181818;stroke-width:1;" x1="189.1909" x2="189.1909" y1="525.75" y2="545.75"/><polygon fill="#181818" points="185.1909,535.75,193.1909,535.75,189.1909,545.75" style="stroke:#181818;stroke-width:1;"/><!--SRC=[7P0nQyD038Nt-nKQdQ5awMGFfOJM14e9mIHqL2wo8tm-6PqkYVzzpraqlE-znqDfv3YZuWJ9ba3bAdlBKt0k6QevL_zWZlu6d_FSk7gdX4PmKEavK17sSSu6hM18S6U4ZfwsFGdx0XttK7qzEHd70Gu1uyS6x4OHgZzA6mTGxoGMc0byLgLeO8eSYxrn5191zIilNwSy3AIl4cWfagA9DYiwqftf0Uzl3w8HBa7yMCBnolqwNWOuYuwIBPMrdQ8VuIGXJxGzafSxwLBqbWpE9HuM-2QwNd3jA1-G-Hy0]--></g></svg>