<svg xmlns="http://www.w3.org/2000/svg" xmlns:xlink="http://www.w3.org/1999/xlink" contentStyleType="text/css" data-diagram-type="DESCRIPTION" height="764px" preserveAspectRatio="none" style="width:1869px;height:764px;background:#FFFFFF;" version="1.1" viewBox="0 0 1869 764" width="1869px" zoomAndPan="magnify"><defs/><g><!--cluster Mobile App\n(React Native)--><g class="cluster" data-entity="Mobile App.n.React Native." data-source-line="7" data-uid="ent0003" id="cluster_Mobile App.n.React Native."><polygon fill="none" points="940,6,1059.6611,6,1066.6611,44.5938,1192,44.5938,1192,257.59,940,257.59,940,6" style="stroke:#000000;stroke-width:1.5;"/><line style="stroke:#000000;stroke-width:1.5;" x1="940" x2="1066.6611" y1="44.5938" y2="44.5938"/><text fill="#000000" font-family="sans-serif" font-size="14" font-weight="bold" lengthAdjust="spacing" textLength="88.416" x="956.6226" y="20.9951">Mobile App</text><text fill="#000000" font-family="sans-serif" font-size="14" font-weight="bold" lengthAdjust="spacing" textLength="113.6611" x="944" y="37.292">(React Native)</text></g><!--cluster Backend API\n(FastAPI)--><g class="cluster" data-entity="Backend API.n.FastAPI." data-source-line="12" data-uid="ent0006" id="cluster_Backend API.n.FastAPI."><polygon fill="none" points="732,306.59,836.3896,306.59,843.3896,345.1838,1308,345.1838,1308,595.19,732,595.19,732,306.59" style="stroke:#000000;stroke-width:1.5;"/><line style="stroke:#000000;stroke-width:1.5;" x1="732" x2="843.3896" y1="345.1838" y2="345.1838"/><text fill="#000000" font-family="sans-serif" font-size="14" font-weight="bold" lengthAdjust="spacing" textLength="98.3896" x="736" y="321.5851">Backend API</text><text fill="#000000" font-family="sans-serif" font-size="14" font-weight="bold" lengthAdjust="spacing" textLength="73.1377" x="748.626" y="337.882">(FastAPI)</text></g><!--cluster RAG Engine--><g class="cluster" data-entity="RAG Engine" data-source-line="19" data-uid="ent0011" id="cluster_RAG Engine"><polygon fill="none" points="1300,644.19,1397.793,644.19,1404.793,666.4869,1852,666.4869,1852,757.78,1300,757.78,1300,644.19" style="stroke:#000000;stroke-width:1.5;"/><line style="stroke:#000000;stroke-width:1.5;" x1="1300" x2="1404.793" y1="666.4869" y2="666.4869"/><text fill="#000000" font-family="sans-serif" font-size="14" font-weight="bold" lengthAdjust="spacing" textLength="91.793" x="1304" y="659.1851">RAG Engine</text></g><!--cluster Database\n(Supabase/Postgres)--><g class="cluster" data-entity="Database.n.Supabase.Postgres." data-source-line="25" data-uid="ent0015" id="cluster_Database.n.Supabase.Postgres."><path d="M6,476.89 C6,466.89 298,466.89 298,466.89 C298,466.89 590,466.89 590,476.89 L590,585.19 C590,595.19 298,595.19 298,595.19 C298,595.19 6,595.19 6,585.19 L6,476.89" fill="none" style="stroke:#181818;stroke-width:1;"/><path d="M6,476.89 C6,486.89 298,486.89 298,486.89 C298,486.89 590,486.89 590,476.89" fill="none" style="stroke:#181818;stroke-width:1;"/><text fill="#000000" font-family="sans-serif" font-size="14" font-weight="bold" lengthAdjust="spacing" textLength="74.5049" x="260.7476" y="501.8851">Database</text><text fill="#000000" font-family="sans-serif" font-size="14" font-weight="bold" lengthAdjust="spacing" textLength="164.3838" x="215.8081" y="518.182">(Supabase/Postgres)</text></g><!--cluster LLM API Provider--><g class="cluster" data-entity="LLM API Provider" data-source-line="31" data-uid="ent0019" id="cluster_LLM API Provider"><path d="M1480.2388,506.2236 C1483.2858,500.4245 1488.7961,500.2709 1491.7188,506.3438 C1495.254,498.8604 1499.6466,499.3837 1504.7047,504.8123 C1508.1432,497.2541 1514.5877,497.4409 1518.4404,504.4209 C1522.6784,499.2799 1526.8302,499.653 1529.8494,505.6673 C1533.6794,499.6347 1538.3608,498.0599 1543.5925,504.0673 C1546.0589,499.3826 1550.9399,498.9441 1554.0414,503.3361 C1558.9658,497.2616 1562.777,497.5626 1566.7011,504.3227 C1571.004,497.4271 1577.4834,497.5347 1580.6692,505.3811 C1583.7667,498.6153 1589.3568,498.8312 1592.9977,504.8573 C1597.1448,499.3047 1601.2012,498.2599 1605.4305,504.7726 C1610.1828,498.7061 1615.2809,499.0736 1618.2638,506.4604 C1622.6935,502.1998 1626.3346,501.785 1629.5378,507.8054 C1636.5958,508.5636 1638.9715,514.215 1633.7982,519.4487 C1641.6724,523.4416 1640.886,528.0824 1634.9005,533.1874 C1643.1356,535.4513 1645.3065,542.1279 1638.557,548.0726 C1644.0963,554.015 1643.0608,559.1477 1635.2625,561.916 C1639.6304,567.7082 1638.7124,572.1004 1632.1137,575.3156 C1637.5964,580.0109 1637.4251,586.436 1629.5713,588.5739 C1626.1558,594.5159 1621.4694,595.6644 1616.8233,589.9158 C1613.7821,597.2851 1609.2015,596.3385 1604.3271,591.8474 C1600.6007,597.2859 1596.9299,598.696 1592.2168,592.9122 C1589.2385,599.2147 1585.5605,599.4118 1580.7554,594.8371 C1577.1149,602.0579 1572.923,601.0312 1568.239,595.8937 C1565.04,602.7078 1559.0934,602.2527 1555.0382,596.8163 C1550.1611,602.205 1545.5774,602.2873 1542.2219,595.2473 C1537.3072,599.8175 1533.5313,600.4914 1530.1944,593.5926 C1526.4524,600.1547 1521.6884,599.1011 1517.9765,593.5622 C1513.0169,598.5613 1508.7173,598.5246 1505.7534,591.5286 C1501.8467,597.2908 1495.8998,596.0419 1493.5442,589.9334 C1489.4796,594.9112 1484.1834,595.6485 1480.7254,589.2499 C1472.6731,587.1203 1472.4211,580.6856 1477.5215,575.4929 C1469.3219,573.161 1466.6744,567.0678 1473.5547,560.6939 C1467.5433,557.7275 1465.9629,554.1871 1470.6242,548.6284 C1464.0673,542.3826 1465.2833,537.2289 1473.3115,533.5891 C1467.8633,528.5433 1469.0911,521.7542 1476.7771,520.077 C1471.1403,513.6319 1473.2056,509.5027 1480.2388,506.2236" fill="none" style="stroke:#181818;stroke-width:1;"/><text fill="#000000" font-family="sans-serif" font-size="14" font-weight="bold" lengthAdjust="spacing" textLength="134.9551" x="1486.5225" y="523.8851">LLM API Provider</text></g><!--entity User Interface--><g class="entity" data-entity="User Interface" data-source-line="8" data-uid="ent0004" id="entity_User Interface"><rect fill="#F1F1F1" height="46.2969" rx="2.5" ry="2.5" style="stroke:#181818;stroke-width:0.5;" width="139.0391" x="976.48" y="195.3"/><rect fill="#F1F1F1" height="10" style="stroke:#181818;stroke-width:0.5;" width="15" x="1095.5191" y="200.3"/><rect fill="#F1F1F1" height="2" style="stroke:#181818;stroke-width:0.5;" width="4" x="1093.5191" y="202.3"/><rect fill="#F1F1F1" height="2" style="stroke:#181818;stroke-width:0.5;" width="4" x="1093.5191" y="206.3"/><text fill="#000000" font-family="sans-serif" font-size="14" lengthAdjust="spacing" textLength="99.0391" x="991.48" y="228.2951">User Interface</text></g><!--entity Speech-to-Text Processor--><g class="entity" data-entity="Speech-to-Text Processor" data-source-line="9" data-uid="ent0005" id="entity_Speech-to-Text Processor"><rect fill="#F1F1F1" height="46.2969" rx="2.5" ry="2.5" style="stroke:#181818;stroke-width:0.5;" width="219.1016" x="956.45" y="57"/><rect fill="#F1F1F1" height="10" style="stroke:#181818;stroke-width:0.5;" width="15" x="1155.5516" y="62"/><rect fill="#F1F1F1" height="2" style="stroke:#181818;stroke-width:0.5;" width="4" x="1153.5516" y="64"/><rect fill="#F1F1F1" height="2" style="stroke:#181818;stroke-width:0.5;" width="4" x="1153.5516" y="68"/><text fill="#000000" font-family="sans-serif" font-size="14" lengthAdjust="spacing" textLength="179.1016" x="971.45" y="89.9951">Speech-to-Text Processor</text></g><!--entity User Manager--><g class="entity" data-entity="User Manager" data-source-line="13" data-uid="ent0007" id="entity_User Manager"><rect fill="#F1F1F1" height="46.2969" rx="2.5" ry="2.5" style="stroke:#181818;stroke-width:0.5;" width="137.7266" x="748.14" y="357.59"/><rect fill="#F1F1F1" height="10" style="stroke:#181818;stroke-width:0.5;" width="15" x="865.8666" y="362.59"/><rect fill="#F1F1F1" height="2" style="stroke:#181818;stroke-width:0.5;" width="4" x="863.8666" y="364.59"/><rect fill="#F1F1F1" height="2" style="stroke:#181818;stroke-width:0.5;" width="4" x="863.8666" y="368.59"/><text fill="#000000" font-family="sans-serif" font-size="14" lengthAdjust="spacing" textLength="97.7266" x="763.14" y="390.5851">User Manager</text></g><!--entity Training Plan Engine--><g class="entity" data-entity="Training Plan Engine" data-source-line="14" data-uid="ent0008" id="entity_Training Plan Engine"><rect fill="#F1F1F1" height="46.2969" rx="2.5" ry="2.5" style="stroke:#181818;stroke-width:0.5;" width="183.9648" x="1108.02" y="357.59"/><rect fill="#F1F1F1" height="10" style="stroke:#181818;stroke-width:0.5;" width="15" x="1271.9848" y="362.59"/><rect fill="#F1F1F1" height="2" style="stroke:#181818;stroke-width:0.5;" width="4" x="1269.9848" y="364.59"/><rect fill="#F1F1F1" height="2" style="stroke:#181818;stroke-width:0.5;" width="4" x="1269.9848" y="368.59"/><text fill="#000000" font-family="sans-serif" font-size="14" lengthAdjust="spacing" textLength="143.9648" x="1123.02" y="390.5851">Training Plan Engine</text></g><!--entity Workout Logger--><g class="entity" data-entity="Workout Logger" data-source-line="15" data-uid="ent0009" id="entity_Workout Logger"><rect fill="#F1F1F1" height="46.2969" rx="2.5" ry="2.5" style="stroke:#181818;stroke-width:0.5;" width="152.1572" x="920.92" y="357.59"/><rect fill="#F1F1F1" height="10" style="stroke:#181818;stroke-width:0.5;" width="15" x="1053.0772" y="362.59"/><rect fill="#F1F1F1" height="2" style="stroke:#181818;stroke-width:0.5;" width="4" x="1051.0772" y="364.59"/><rect fill="#F1F1F1" height="2" style="stroke:#181818;stroke-width:0.5;" width="4" x="1051.0772" y="368.59"/><text fill="#000000" font-family="sans-serif" font-size="14" lengthAdjust="spacing" textLength="112.1572" x="935.92" y="390.5851">Workout Logger</text></g><!--entity RAG Coordinator--><g class="entity" data-entity="RAG Coordinator" data-source-line="16" data-uid="ent0010" id="entity_RAG Coordinator"><rect fill="#F1F1F1" height="46.2969" rx="2.5" ry="2.5" style="stroke:#181818;stroke-width:0.5;" width="157.3047" x="1133.35" y="532.89"/><rect fill="#F1F1F1" height="10" style="stroke:#181818;stroke-width:0.5;" width="15" x="1270.6547" y="537.89"/><rect fill="#F1F1F1" height="2" style="stroke:#181818;stroke-width:0.5;" width="4" x="1268.6547" y="539.89"/><rect fill="#F1F1F1" height="2" style="stroke:#181818;stroke-width:0.5;" width="4" x="1268.6547" y="543.89"/><text fill="#000000" font-family="sans-serif" font-size="14" lengthAdjust="spacing" textLength="117.3047" x="1148.35" y="565.8851">RAG Coordinator</text></g><!--entity Vector Store\n(FAISS/Qdrant)--><g class="entity" data-entity="Vector Store.n.FAISS.Qdrant." data-source-line="20" data-uid="ent0012" id="entity_Vector Store.n.FAISS.Qdrant."><rect fill="#F1F1F1" height="62.5938" rx="2.5" ry="2.5" style="stroke:#181818;stroke-width:0.5;" width="143.7764" x="1692.11" y="679.19"/><rect fill="#F1F1F1" height="10" style="stroke:#181818;stroke-width:0.5;" width="15" x="1815.8864" y="684.19"/><rect fill="#F1F1F1" height="2" style="stroke:#181818;stroke-width:0.5;" width="4" x="1813.8864" y="686.19"/><rect fill="#F1F1F1" height="2" style="stroke:#181818;stroke-width:0.5;" width="4" x="1813.8864" y="690.19"/><text fill="#000000" font-family="sans-serif" font-size="14" lengthAdjust="spacing" textLength="87.459" x="1715.2687" y="712.1851">Vector Store</text><text fill="#000000" font-family="sans-serif" font-size="14" lengthAdjust="spacing" textLength="103.7764" x="1707.11" y="728.482">(FAISS/Qdrant)</text></g><!--entity LLM API\n(OpenAI or Local)--><g class="entity" data-entity="LLM API.n.OpenAI or Local." data-source-line="21" data-uid="ent0013" id="entity_LLM API.n.OpenAI or Local."><rect fill="#F1F1F1" height="62.5938" rx="2.5" ry="2.5" style="stroke:#181818;stroke-width:0.5;" width="161.7754" x="1495.11" y="679.19"/><rect fill="#F1F1F1" height="10" style="stroke:#181818;stroke-width:0.5;" width="15" x="1636.8854" y="684.19"/><rect fill="#F1F1F1" height="2" style="stroke:#181818;stroke-width:0.5;" width="4" x="1634.8854" y="686.19"/><rect fill="#F1F1F1" height="2" style="stroke:#181818;stroke-width:0.5;" width="4" x="1634.8854" y="690.19"/><text fill="#000000" font-family="sans-serif" font-size="14" lengthAdjust="spacing" textLength="54.2773" x="1543.859" y="712.1851">LLM API</text><text fill="#000000" font-family="sans-serif" font-size="14" lengthAdjust="spacing" textLength="121.7754" x="1510.11" y="728.482">(OpenAI or Local)</text></g><!--entity Prompt Builder--><g class="entity" data-entity="Prompt Builder" data-source-line="22" data-uid="ent0014" id="entity_Prompt Builder"><rect fill="#F1F1F1" height="46.2969" rx="2.5" ry="2.5" style="stroke:#181818;stroke-width:0.5;" width="144.7402" x="1315.63" y="687.33"/><rect fill="#F1F1F1" height="10" style="stroke:#181818;stroke-width:0.5;" width="15" x="1440.3702" y="692.33"/><rect fill="#F1F1F1" height="2" style="stroke:#181818;stroke-width:0.5;" width="4" x="1438.3702" y="694.33"/><rect fill="#F1F1F1" height="2" style="stroke:#181818;stroke-width:0.5;" width="4" x="1438.3702" y="698.33"/><text fill="#000000" font-family="sans-serif" font-size="14" lengthAdjust="spacing" textLength="104.7402" x="1330.63" y="720.3251">Prompt Builder</text></g><!--entity UserProfile Table--><g class="entity" data-entity="UserProfile Table" data-source-line="26" data-uid="ent0016" id="entity_UserProfile Table"><rect fill="#F1F1F1" height="46.2969" rx="2.5" ry="2.5" style="stroke:#181818;stroke-width:0.5;" width="158.9658" x="415.52" y="532.89"/><rect fill="#F1F1F1" height="10" style="stroke:#181818;stroke-width:0.5;" width="15" x="554.4858" y="537.89"/><rect fill="#F1F1F1" height="2" style="stroke:#181818;stroke-width:0.5;" width="4" x="552.4858" y="539.89"/><rect fill="#F1F1F1" height="2" style="stroke:#181818;stroke-width:0.5;" width="4" x="552.4858" y="543.89"/><text fill="#000000" font-family="sans-serif" font-size="14" lengthAdjust="spacing" textLength="118.9658" x="430.52" y="565.8851">UserProfile Table</text></g><!--entity WorkoutLog Table--><g class="entity" data-entity="WorkoutLog Table" data-source-line="27" data-uid="ent0017" id="entity_WorkoutLog Table"><rect fill="#F1F1F1" height="46.2969" rx="2.5" ry="2.5" style="stroke:#181818;stroke-width:0.5;" width="167.4219" x="213.29" y="532.89"/><rect fill="#F1F1F1" height="10" style="stroke:#181818;stroke-width:0.5;" width="15" x="360.7119" y="537.89"/><rect fill="#F1F1F1" height="2" style="stroke:#181818;stroke-width:0.5;" width="4" x="358.7119" y="539.89"/><rect fill="#F1F1F1" height="2" style="stroke:#181818;stroke-width:0.5;" width="4" x="358.7119" y="543.89"/><text fill="#000000" font-family="sans-serif" font-size="14" lengthAdjust="spacing" textLength="127.4219" x="228.29" y="565.8851">WorkoutLog Table</text></g><!--entity Mesocycle Table--><g class="entity" data-entity="Mesocycle Table" data-source-line="28" data-uid="ent0018" id="entity_Mesocycle Table"><rect fill="#F1F1F1" height="46.2969" rx="2.5" ry="2.5" style="stroke:#181818;stroke-width:0.5;" width="155.7051" x="22.15" y="532.89"/><rect fill="#F1F1F1" height="10" style="stroke:#181818;stroke-width:0.5;" width="15" x="157.8551" y="537.89"/><rect fill="#F1F1F1" height="2" style="stroke:#181818;stroke-width:0.5;" width="4" x="155.8551" y="539.89"/><rect fill="#F1F1F1" height="2" style="stroke:#181818;stroke-width:0.5;" width="4" x="155.8551" y="543.89"/><text fill="#000000" font-family="sans-serif" font-size="14" lengthAdjust="spacing" textLength="115.7051" x="37.15" y="565.8851">Mesocycle Table</text></g><!--entity GPT-4/Mistral--><g class="entity" data-entity="GPT-4.Mistral" data-source-line="32" data-uid="ent0020" id="entity_GPT-4.Mistral"><rect fill="#F1F1F1" height="46.2969" rx="2.5" ry="2.5" style="stroke:#181818;stroke-width:0.5;" width="133.4951" x="1487.25" y="532.89"/><rect fill="#F1F1F1" height="10" style="stroke:#181818;stroke-width:0.5;" width="15" x="1600.7451" y="537.89"/><rect fill="#F1F1F1" height="2" style="stroke:#181818;stroke-width:0.5;" width="4" x="1598.7451" y="539.89"/><rect fill="#F1F1F1" height="2" style="stroke:#181818;stroke-width:0.5;" width="4" x="1598.7451" y="543.89"/><text fill="#000000" font-family="sans-serif" font-size="14" lengthAdjust="spacing" textLength="93.4951" x="1502.25" y="565.8851">GPT-4/Mistral</text></g><!--entity User--><g class="entity" data-entity="User" data-source-line="5" data-uid="ent0002" id="entity_User"><ellipse cx="879.9951" cy="50.5" fill="#F1F1F1" rx="8" ry="8" style="stroke:#181818;stroke-width:0.5;"/><path d="M879.9951,58.5 L879.9951,85.5 M866.9951,66.5 L892.9951,66.5 M879.9951,85.5 L866.9951,100.5 M879.9951,85.5 L892.9951,100.5" fill="none" style="stroke:#181818;stroke-width:0.5;"/><text fill="#000000" font-family="sans-serif" font-size="14" lengthAdjust="spacing" textLength="31.9102" x="864.04" y="114.9951">User</text></g><!--entity Vector Store--><g class="entity" data-entity="Vector Store" data-source-line="42" data-uid="ent0027" id="entity_Vector Store"><rect fill="#F1F1F1" height="46.2969" rx="2.5" ry="2.5" style="stroke:#181818;stroke-width:0.5;" width="127.459" x="1325.27" y="532.89"/><rect fill="#F1F1F1" height="10" style="stroke:#181818;stroke-width:0.5;" width="15" x="1432.729" y="537.89"/><rect fill="#F1F1F1" height="2" style="stroke:#181818;stroke-width:0.5;" width="4" x="1430.729" y="539.89"/><rect fill="#F1F1F1" height="2" style="stroke:#181818;stroke-width:0.5;" width="4" x="1430.729" y="543.89"/><text fill="#000000" font-family="sans-serif" font-size="14" lengthAdjust="spacing" textLength="87.459" x="1340.27" y="565.8851">Vector Store</text></g><!--entity LLM API--><g class="entity" data-entity="LLM API" data-source-line="45" data-uid="ent0030" id="entity_LLM API"><rect fill="#F1F1F1" height="46.2969" rx="2.5" ry="2.5" style="stroke:#181818;stroke-width:0.5;" width="94.2773" x="1506.86" y="357.59"/><rect fill="#F1F1F1" height="10" style="stroke:#181818;stroke-width:0.5;" width="15" x="1581.1373" y="362.59"/><rect fill="#F1F1F1" height="2" style="stroke:#181818;stroke-width:0.5;" width="4" x="1579.1373" y="364.59"/><rect fill="#F1F1F1" height="2" style="stroke:#181818;stroke-width:0.5;" width="4" x="1579.1373" y="368.59"/><text fill="#000000" font-family="sans-serif" font-size="14" lengthAdjust="spacing" textLength="54.2773" x="1521.86" y="390.5851">LLM API</text></g><!--entity Database--><g class="entity" data-entity="Database" data-source-line="52" data-uid="ent0036" id="entity_Database"><rect fill="#F1F1F1" height="46.2969" rx="2.5" ry="2.5" style="stroke:#181818;stroke-width:0.5;" width="106.8008" x="609.6" y="532.89"/><rect fill="#F1F1F1" height="10" style="stroke:#181818;stroke-width:0.5;" width="15" x="696.4008" y="537.89"/><rect fill="#F1F1F1" height="2" style="stroke:#181818;stroke-width:0.5;" width="4" x="694.4008" y="539.89"/><rect fill="#F1F1F1" height="2" style="stroke:#181818;stroke-width:0.5;" width="4" x="694.4008" y="543.89"/><text fill="#000000" font-family="sans-serif" font-size="14" lengthAdjust="spacing" textLength="66.8008" x="624.6" y="565.8851">Database</text></g><!--link User to User Interface--><g class="link" data-entity-1="User" data-entity-2="User Interface" data-source-line="35" data-uid="lnk21" id="link_User_User Interface"><path d="M866.55,118.56 C863.32,134.36 863.21,152.12 873,165.3 C896.67,197.15 933.2465,209.4283 970.2065,214.5383" fill="none" id="User-to-User Interface" style="stroke:#181818;stroke-width:1;"/><polygon fill="#181818" points="976.15,215.36,967.7826,210.1651,971.1971,214.6752,966.687,218.0897,976.15,215.36" style="stroke:#181818;stroke-width:1;"/><text fill="#000000" font-family="sans-serif" font-size="13" lengthAdjust="spacing" textLength="178.6484" x="874" y="161.3669">enters goals, logs workouts</text></g><!--link Speech-to-Text Processor to User Interface--><g class="link" data-entity-1="Speech-to-Text Processor" data-entity-2="User Interface" data-source-line="36" data-uid="lnk22" id="link_Speech-to-Text Processor_User Interface"><path d="M1066.01,103.45 C1065.7,120.5 1064.56,144.52 1061,165.3 C1059.31,175.14 1058.2007,180.0311 1055.4307,189.1111" fill="none" id="Speech-to-Text Processor-to-User Interface" style="stroke:#181818;stroke-width:1;"/><polygon fill="#181818" points="1053.68,194.85,1060.132,187.4088,1055.139,190.0676,1052.4802,185.0745,1053.68,194.85" style="stroke:#181818;stroke-width:1;"/></g><!--link User Interface to User Manager--><g class="link" data-entity-1="User Interface" data-entity-2="User Manager" data-source-line="37" data-uid="lnk23" id="link_User Interface_User Manager"><path d="M977.61,241.96 C957.19,250.28 935.36,260.86 917,273.59 C883.09,297.11 855.4999,328.971 837.2599,352.461" fill="none" id="User Interface-to-User Manager" style="stroke:#181818;stroke-width:1;"/><polygon fill="#181818" points="833.58,357.2,842.2592,352.5447,836.6466,353.2508,835.9404,347.6382,833.58,357.2" style="stroke:#181818;stroke-width:1;"/><text fill="#000000" font-family="sans-serif" font-size="13" lengthAdjust="spacing" textLength="108.6909" x="918" y="286.6569">user profile, logs</text></g><!--link User Interface to Training Plan Engine--><g class="link" data-entity-1="User Interface" data-entity-2="Training Plan Engine" data-source-line="38" data-uid="lnk24" id="link_User Interface_Training Plan Engine"><path d="M1037.82,241.9 C1033.76,257.35 1031.81,277.39 1043,290.59 C1056.98,307.09 1071.1,290.12 1091,298.59 C1123.99,312.64 1151.7814,334.5938 1172.5314,353.3738" fill="none" id="User Interface-to-Training Plan Engine" style="stroke:#181818;stroke-width:1;"/><polygon fill="#181818" points="1176.98,357.4,1172.9913,348.395,1173.2729,354.0448,1167.623,354.3264,1176.98,357.4" style="stroke:#181818;stroke-width:1;"/><text fill="#000000" font-family="sans-serif" font-size="13" lengthAdjust="spacing" textLength="112.9058" x="1044" y="286.6569">request new plan</text></g><!--link Training Plan Engine to User Interface--><g class="link" data-entity-1="Training Plan Engine" data-entity-2="User Interface" data-source-line="50" data-uid="lnk35" id="link_Training Plan Engine_User Interface"><path d="M1196.86,357.24 C1192.51,333.77 1182.61,297.19 1161,273.59 C1148.7,260.17 1137.7954,252.3742 1121.3354,244.4442" fill="none" id="Training Plan Engine-to-User Interface" style="stroke:#181818;stroke-width:1;"/><polygon fill="#181818" points="1115.93,241.84,1122.302,249.3499,1120.4345,244.0101,1125.7742,242.1427,1115.93,241.84" style="stroke:#181818;stroke-width:1;"/><text fill="#000000" font-family="sans-serif" font-size="13" lengthAdjust="spacing" textLength="78.3618" x="1173" y="286.6569">display plan</text></g><!--link Training Plan Engine to RAG Coordinator--><g class="link" data-entity-1="Training Plan Engine" data-entity-2="RAG Coordinator" data-source-line="40" data-uid="lnk25" id="link_Training Plan Engine_RAG Coordinator"><path d="M1107.71,402.45 C1054.69,414.8 997.82,428.99 994,433.89 C949.98,490.44 1048.1244,523.2369 1127.1644,540.2569" fill="none" id="Training Plan Engine-to-RAG Coordinator" style="stroke:#181818;stroke-width:1;"/><polygon fill="#181818" points="1133.03,541.52,1125.0737,535.7151,1128.142,540.4675,1123.3896,543.5358,1133.03,541.52" style="stroke:#181818;stroke-width:1;"/><text fill="#000000" font-family="sans-serif" font-size="13" lengthAdjust="spacing" textLength="182.4761" x="995" y="446.9569">needs context + generation</text></g><!--link RAG Coordinator to Training Plan Engine--><g class="link" data-entity-1="RAG Coordinator" data-entity-2="Training Plan Engine" data-source-line="49" data-uid="lnk34" id="link_RAG Coordinator_Training Plan Engine"><path d="M1210.44,532.55 C1208.14,499.26 1204.2548,443.2156 1201.9548,410.0256" fill="none" id="RAG Coordinator-to-Training Plan Engine" style="stroke:#181818;stroke-width:1;"/><polygon fill="#181818" points="1201.54,404.04,1198.1718,413.295,1201.8857,409.028,1206.1526,412.7419,1201.54,404.04" style="stroke:#181818;stroke-width:1;"/><text fill="#000000" font-family="sans-serif" font-size="13" lengthAdjust="spacing" textLength="60.2075" x="1205" y="446.9569">final plan</text></g><!--link RAG Coordinator to Prompt Builder--><g class="link" data-entity-1="RAG Coordinator" data-entity-2="Prompt Builder" data-source-line="41" data-uid="lnk26" id="link_RAG Coordinator_Prompt Builder"><path d="M1237.97,579.53 C1271.25,608.35 1324.0654,654.101 1357.3854,682.971" fill="none" id="RAG Coordinator-to-Prompt Builder" style="stroke:#181818;stroke-width:1;"/><polygon fill="#181818" points="1361.92,686.9,1357.7374,677.9834,1358.1411,683.6258,1352.4987,684.0296,1361.92,686.9" style="stroke:#181818;stroke-width:1;"/></g><!--link Prompt Builder to Vector Store--><g class="link" data-entity-1="Prompt Builder" data-entity-2="Vector Store" data-source-line="42" data-uid="lnk28" id="link_Prompt Builder_Vector Store"><path d="M1395.53,686.89 C1401.24,667 1407.54,637.23 1404,611.19 C1402.57,600.65 1401.3751,595.0137 1398.4751,585.4137" fill="none" id="Prompt Builder-to-Vector Store" style="stroke:#181818;stroke-width:1;"/><polygon fill="#181818" points="1396.74,579.67,1395.5135,589.4422,1398.1859,584.4564,1403.1717,587.1288,1396.74,579.67" style="stroke:#181818;stroke-width:1;"/><text fill="#000000" font-family="sans-serif" font-size="13" lengthAdjust="spacing" textLength="107.0977" x="1406" y="624.2569">semantic search</text></g><!--link Vector Store to Prompt Builder--><g class="link" data-entity-1="Vector Store" data-entity-2="Prompt Builder" data-source-line="43" data-uid="lnk29" id="link_Vector Store_Prompt Builder"><path d="M1352.94,579.68 C1342.6,588.18 1332.62,598.83 1327,611.19 C1314.54,638.61 1333.1817,663.6125 1354.4417,682.9525" fill="none" id="Vector Store-to-Prompt Builder" style="stroke:#181818;stroke-width:1;"/><polygon fill="#181818" points="1358.88,686.99,1354.9142,677.9749,1355.1814,683.6254,1349.5309,683.8926,1358.88,686.99" style="stroke:#181818;stroke-width:1;"/><text fill="#000000" font-family="sans-serif" font-size="13" lengthAdjust="spacing" textLength="67.7803" x="1328" y="624.2569">top-k docs</text></g><!--link Prompt Builder to LLM API--><g class="link" data-entity-1="Prompt Builder" data-entity-2="LLM API" data-source-line="45" data-uid="lnk31" id="link_Prompt Builder_LLM API"><path d="M1409.12,686.99 C1426.11,670.3 1451.46,648.41 1478,636.19 C1496.05,627.87 1502.51,632.08 1522,628.19 C1573.29,617.95 1604.18,643.91 1637,603.19 C1677.24,553.25 1662.62,517.68 1637,458.89 C1627.25,436.53 1612.2693,421.3442 1594.4593,407.9042" fill="none" id="Prompt Builder-to-LLM API" style="stroke:#181818;stroke-width:1;"/><polygon fill="#181818" points="1589.67,404.29,1594.4445,412.9042,1593.6611,407.3018,1599.2635,406.5184,1589.67,404.29" style="stroke:#181818;stroke-width:1;"/><text fill="#000000" font-family="sans-serif" font-size="13" lengthAdjust="spacing" textLength="115.9463" x="1662" y="560.6069">context + prompt</text></g><!--link LLM API to RAG Coordinator--><g class="link" data-entity-1="LLM API" data-entity-2="RAG Coordinator" data-source-line="46" data-uid="lnk32" id="link_LLM API_RAG Coordinator"><path d="M1506.79,389.54 C1455.09,399.62 1371.15,420.6 1308,458.89 C1275.93,478.33 1250.4304,506.0426 1232.8604,527.7926" fill="none" id="LLM API-to-RAG Coordinator" style="stroke:#181818;stroke-width:1;"/><polygon fill="#181818" points="1229.09,532.46,1237.8571,527.9725,1232.232,528.5705,1231.634,522.9454,1229.09,532.46" style="stroke:#181818;stroke-width:1;"/><text fill="#000000" font-family="sans-serif" font-size="13" lengthAdjust="spacing" textLength="59.3315" x="1352" y="446.9569">response</text></g><!--link LLM API to GPT-4/Mistral--><g class="link" data-entity-1="LLM API" data-entity-2="GPT-4.Mistral" data-source-line="47" data-uid="lnk33" id="link_LLM API_GPT-4.Mistral"><path d="M1554,404.04 C1554,437.23 1554,493.26 1554,526.55" fill="none" id="LLM API-to-GPT-4/Mistral" style="stroke:#181818;stroke-width:1;"/><polygon fill="#181818" points="1554,532.55,1558,523.55,1554,527.55,1550,523.55,1554,532.55" style="stroke:#181818;stroke-width:1;"/></g><!--link Workout Logger to Database--><g class="link" data-entity-1="Workout Logger" data-entity-2="Database" data-source-line="52" data-uid="lnk37" id="link_Workout Logger_Database"><path d="M931.2,404.28 C887.08,418.87 827.49,437.55 774,450.89 C755.56,455.49 748.02,448.66 732,458.89 C704.12,476.69 686.6831,504.7534 675.6031,527.1234" fill="none" id="Workout Logger-to-Database" style="stroke:#181818;stroke-width:1;"/><polygon fill="#181818" points="672.94,532.5,680.519,526.2105,675.1592,528.0195,673.3502,522.6597,672.94,532.5" style="stroke:#181818;stroke-width:1;"/></g><!--link User Manager to Database--><g class="link" data-entity-1="User Manager" data-entity-2="Database" data-source-line="53" data-uid="lnk38" id="link_User Manager_Database"><path d="M789.2,404.35 C771.89,419.05 749.64,439.11 732,458.89 C710.94,482.51 693.528,507.4746 680.378,527.6346" fill="none" id="User Manager-to-Database" style="stroke:#181818;stroke-width:1;"/><polygon fill="#181818" points="677.1,532.66,685.3673,527.3072,679.8317,528.4722,678.6667,522.9366,677.1,532.66" style="stroke:#181818;stroke-width:1;"/></g><!--link Training Plan Engine to Mesocycle Table--><g class="link" data-entity-1="Training Plan Engine" data-entity-2="Mesocycle Table" data-source-line="54" data-uid="lnk39" id="link_Training Plan Engine_Mesocycle Table"><path d="M1107.68,401.42 C1102.05,402.34 1096.46,403.17 1091,403.89 C893.44,429.9 377.64,376.95 196,458.89 C160.95,474.7 135.1349,504.4973 118.4449,527.5873" fill="none" id="Training Plan Engine-to-Mesocycle Table" style="stroke:#181818;stroke-width:1;"/><polygon fill="#181818" points="114.93,532.45,123.4441,527.4992,117.8591,528.3978,116.9605,522.8127,114.93,532.45" style="stroke:#181818;stroke-width:1;"/></g><!--SRC=[VLJ1Rjim3BthAuYSMcn6BZljCC3TrY90icLrjXws7XYPSON8aYR9xO9X_pxATfhKYNiHQF7nFL5ySjWguz1Z3I7kDF7gbOnDhKLupaXREsl8nAA5U98HJQNf25BI1XiTL_GdvbfLfcOqI5x82u4oMW_VGueToYrM19E5NIicovtxPIvkYJ7m1QDwfCi9_1K0FnCUPebXWvBkqrRXYEH35csMX63fhQGGhByN_uwOhpWWKqA-d37rDOR8qGlM1Hf6-fPpvL4PPIfOQZJmsLJAT69trczj4s5kgptsDh-1ZzRwKXcCGzcKxCfxgH_KzbtmGkaW-QmefjzAZoPUjdJp-Q8_v5T79fy1e-TMekxIt5xj8bmrIfVKYPKOSOs1rJxr4HSNZMl3wTA6M7aAnxqooIRTymhN-aLVtDRHveA2bJjv0BAOrBOfOTAVCjtse-A3zEGtorNsRhfGR1ZKBRwzsYpxS38wU0-j4m9K5dLu2zfM0PwwSmGnFjQpREA4_e3Q3vOLc_JjkkuxnP72imPW0a-_6meH33s1uvGG8z2MPMWD9Z14PU37mthSrHkeo91dYriZJk4joN3YmuqETUohf1EePaifoG5w-I06W7FCN1MjoxPGMXd4Y4u_-0G-DE5Qf3Wanxfd7_9F8z0GEl3Ds5MCJMN3ADtDuxLnd3gmL86hTljH3bvtLxL_L7kFFTjfc7r5UVYI_WC0]--></g></svg>